<?xml version="1.0" ?><!DOCTYPE svg  PUBLIC '-//W3C//DTD SVG 1.1//EN'  'http://www.w3.org/Graphics/SVG/1.1/DTD/svg11.dtd'><svg height="32px" id="Layer_1" style="enable-background:new 0 0 32 32;" version="1.1" viewBox="0 0 32 32" width="32px" xml:space="preserve" xmlns="http://www.w3.org/2000/svg" xmlns:xlink="http://www.w3.org/1999/xlink"><g transform="translate(0 240)"><path d="M17.051-210.748L0-208l2.75-17.049l1.744,1.744l-0.886,5.483c1.712-0.435,3.574,0.032,4.875,1.335   c1.307,1.303,1.771,3.165,1.338,4.875l5.482-0.883L17.051-210.748L17.051-210.748z M3.717-230.1v4.242h4.242l9.898-9.899   L13.616-240L3.717-230.1z M10.79-223.029v4.244h4.24l9.898-9.9l-4.242-4.242L10.79-223.029z M22.102-211.715l9.898-9.9   l-4.242-4.242l-9.898,9.9l0.078,0.078v4.242h4.242L22.102-211.715z"/></g></svg>