<?xml version="1.0" ?><svg id="Layer_1" style="enable-background:new 0 0 1024 1024;" version="1.1" viewBox="0 0 1024 1024" xml:space="preserve" xmlns="http://www.w3.org/2000/svg" xmlns:xlink="http://www.w3.org/1999/xlink"><path d="M780,80H134.3C104.3,80,80,104.3,80,134.3v755.6c0,29.8,24.3,54.1,54.1,54.1h755.7  c29.9,0,54.1-24.3,54.1-54.1V249L780,80z M347,120h330v237.5c0,7.4-6.1,13.5-13.5,13.5h-303c-7.4,0-13.5-6.1-13.5-13.5V120z   M511.9,835.1c-95.2,0-172.7-77.5-172.7-172.7s77.5-172.7,172.7-172.7s172.7,77.5,172.7,172.7S607.2,835.1,511.9,835.1z" id="XMLID_121_"/><g id="XMLID_1_"/><g id="XMLID_2_"/><g id="XMLID_3_"/><g id="XMLID_4_"/><g id="XMLID_5_"/></svg>