<?xml version="1.0" standalone="no"?>
<!DOCTYPE svg PUBLIC "-//W3C//DTD SVG 20010904//EN"
 "http://www.w3.org/TR/2001/REC-SVG-20010904/DTD/svg10.dtd">
<svg version="1.0" xmlns="http://www.w3.org/2000/svg"
 width="666.000000pt" height="666.000000pt" viewBox="0 0 666.000000 666.000000"
 preserveAspectRatio="xMidYMid meet">
<metadata>
Created by potrace 1.14, written by Peter Selinger 2001-2017
</metadata>
<g transform="translate(0.000000,666.000000) scale(0.100000,-0.100000)"
fill="#000000" stroke="none">
<path d="M1578 5880 c-195 -21 -449 -90 -589 -161 -207 -104 -399 -288 -512
-491 -54 -96 -103 -229 -128 -349 -31 -144 -32 -410 -1 -579 71 -388 210 -693
553 -1216 l119 -181 -146 -277 c-80 -153 -142 -281 -137 -286 13 -11 1585
-812 1587 -808 1 2 15 26 31 53 15 28 29 51 31 53 1 2 65 -34 141 -80 567
-345 1252 -632 1747 -732 746 -151 1345 -33 1738 342 129 123 202 234 265 402
82 216 84 490 6 656 l-18 39 -84 0 -84 0 -17 -100 c-39 -228 -129 -461 -243
-629 -54 -81 -179 -209 -254 -262 -123 -89 -295 -152 -458 -169 -33 -3 -91
-13 -130 -22 -93 -21 -317 -20 -459 2 -443 67 -967 281 -1547 630 -137 83
-419 265 -419 270 0 2 25 49 55 106 30 56 55 106 55 111 0 4 -98 8 -217 8
l-218 1 -77 65 -78 65 0 944 0 945 -87 0 c-49 0 -131 3 -184 6 l-96 7 -249
-477 -249 -476 -21 26 c-68 83 -246 405 -324 587 -118 276 -161 461 -161 692
-1 199 30 345 102 489 51 103 93 158 182 242 165 158 385 253 692 301 173 27
500 24 675 -6 551 -95 1116 -321 1618 -648 l114 -73 -26 -45 -25 -45 164 0
c341 0 606 -65 771 -190 93 -70 189 -221 236 -370 20 -64 23 -96 23 -220 0
-171 -14 -239 -80 -375 -80 -167 -250 -314 -423 -366 -29 -8 -41 -17 -38 -26
3 -7 76 -110 163 -227 133 -181 160 -212 170 -199 33 42 1043 1976 1036 1983
-13 13 -1568 810 -1579 810 -6 0 -95 -161 -198 -357 -104 -197 -190 -359 -191
-361 -2 -2 -49 33 -106 78 -602 470 -1291 789 -1889 875 -131 19 -416 27 -532
15z"/>
<path d="M1750 5490 c-262 -33 -501 -144 -640 -298 -107 -118 -177 -284 -186
-442 l-5 -85 27 65 c124 295 359 461 754 532 93 16 155 20 320 20 113 -1 229
-5 258 -9 l53 -8 -150 -220 -150 -220 432 -6 c238 -3 689 -7 1002 -7 l570 -1
-50 23 c-27 13 -80 44 -116 68 -90 61 -290 161 -484 242 -88 37 -221 96 -295
131 -211 101 -404 158 -670 200 -119 19 -563 29 -670 15z"/>
<path d="M4006 4292 c-8 -7 -8 -336 1 -505 l6 -137 96 0 c141 0 243 31 333
102 94 74 118 237 53 373 -33 71 -66 101 -140 125 -91 29 -333 59 -349 42z"/>
<path d="M2777 3769 c-4 -265 -7 -673 -7 -905 0 -401 -1 -425 -19 -456 l-20
-33 797 -422 c438 -232 803 -423 811 -425 10 -2 73 107 194 335 187 351 188
356 132 357 -15 1 -96 117 -337 492 l-318 491 0 -496 0 -497 -340 0 -340 0 -1
153 c-1 83 -5 541 -8 1017 l-6 865 -266 3 -266 2 -6 -481z"/>
<path d="M5604 2153 c0 -146 -16 -218 -70 -328 -93 -191 -268 -329 -534 -422
l-95 -33 175 4 c201 4 268 19 410 89 67 33 103 59 171 127 73 72 94 100 132
180 61 124 87 235 94 388 l6 122 -144 0 -145 0 0 -127z"/>
</g>
</svg>
